<?xml version="1.0" encoding="UTF-8"?>
<svg xmlns="http://www.w3.org/2000/svg" viewBox="0 0 149.28 149.29">
  <defs>
    <style>
      .cls-1 {
        fill: #efefef;
      }

      .cls-2 {
        fill: #0a6293;
      }

      .cls-3 {
        fill: #a6171d;
      }

      .cls-4 {
        fill: #efcb4e;
      }

      .cls-5 {
        fill: #b5b5b6;
      }

      .cls-6 {
        fill: #c9a063;
      }

      .cls-7 {
        fill: #7f5b2e;
      }
    </style>
  </defs>
  <g id="title">
    <g id="title-2" data-name="title">
      <g id="title-3" data-name="title">
        <path id="B" class="cls-6" d="M32.51,125.32h-4.52c-.65,0-1.12-.09-1.4-.26-.28-.17-.42-.45-.42-.83v-6.6c0-.39.14-.67.43-.83.29-.17.75-.25,1.39-.25h4.79c.71,0,1.32.03,1.84.08.52.05.98.15,1.39.3.35.12.66.28.93.47s.47.4.62.63.21.47.21.73c0,.88-.74,1.52-2.22,1.93,1.94.37,2.92,1.08,2.92,2.14,0,.49-.21.93-.64,1.33-.42.39-1,.68-1.71.87-.45.11-.97.19-1.55.24s-1.27.07-2.05.07ZM29.17,117.88v2.27h2.74c.75,0,1.32-.04,1.73-.13s.72-.24.93-.48c.17-.17.25-.35.25-.56,0-.44-.27-.74-.8-.88-.53-.15-1.34-.22-2.43-.22h-2.43ZM32.29,121.42h-3.12v2.56h3.22c2.02,0,3.04-.43,3.04-1.3,0-.44-.26-.76-.79-.96s-1.31-.3-2.35-.3Z"/>
        <path id="n" class="cls-6" d="M62.62,119.73v.2c.48-.38,1.01-.66,1.59-.84.58-.18,1.24-.27,1.98-.27s1.38.09,1.95.28c.57.19,1,.45,1.28.8.18.2.3.42.35.65.05.23.08.53.08.89v3.04c0,.33-.13.57-.38.74-.25.17-.58.25-.98.25s-.74-.09-1-.26c-.26-.17-.38-.42-.38-.74v-2.72c0-.54-.13-.95-.38-1.24-.25-.29-.75-.43-1.51-.43-.49,0-.94.09-1.34.26-.4.17-.7.41-.89.72-.13.24-.2.7-.2,1.36v2.05c0,.33-.13.58-.39.75s-.59.25-1,.25-.72-.09-.98-.26c-.26-.17-.38-.42-.38-.74v-4.72c0-.31.11-.54.34-.7.23-.15.54-.23.94-.23.24,0,.46.03.66.1.19.07.35.17.47.31s.18.3.18.5Z"/>
        <path id="k" class="cls-6" d="M82.43,124.72l-2.43-2.37-1.49.84v1.3c0,.32-.14.56-.42.73-.28.17-.6.25-.96.25-.42,0-.76-.08-1-.25-.24-.17-.36-.42-.36-.74v-6.97c0-.36.12-.64.35-.83s.57-.28,1.01-.28.76.09,1.01.26c.25.17.37.42.37.76v3.96l3.1-1.93c.38-.24.68-.4.88-.49.2-.09.45-.13.74-.13.34,0,.63.06.86.19.23.13.34.29.34.49,0,.24-.37.56-1.12.96l-1.46.8,2.82,2.63c.21.2.36.34.45.45.09.1.14.2.14.29,0,.26-.12.46-.36.61-.24.15-.55.22-.94.22-.34,0-.6-.05-.78-.16-.18-.11-.43-.3-.74-.59Z"/>
        <path id="i" class="cls-6" d="M91.26,118.06c-.38,0-.71-.07-.98-.21-.27-.14-.41-.34-.41-.59,0-.23.14-.42.42-.57.28-.15.6-.22.97-.22s.67.07.95.2c.28.14.41.33.41.59s-.13.45-.4.59c-.27.14-.59.21-.96.21ZM92.62,119.75v4.72c0,.33-.13.57-.39.74-.26.17-.59.25-1,.25s-.73-.09-.98-.26c-.25-.17-.38-.42-.38-.74v-4.68c0-.32.13-.57.38-.73.25-.16.58-.25.98-.25s.74.08,1,.25c.26.16.39.39.39.68Z"/>
        <path id="h" class="cls-6" d="M117.41,117.39v2.42c.35-.24.69-.43,1.02-.57.33-.14.7-.24,1.1-.31.4-.07.84-.1,1.3-.1.7,0,1.32.09,1.86.26.54.18.97.43,1.28.77.19.2.33.41.39.66.07.24.1.52.1.83v3.13c0,.33-.13.57-.38.74-.25.17-.59.25-1,.25-.91,0-1.36-.33-1.36-.99v-2.76c0-.52-.13-.92-.39-1.21s-.76-.42-1.49-.42c-.49,0-.93.08-1.33.25-.39.17-.69.39-.88.68-.15.24-.22.68-.22,1.3v2.16c0,.32-.12.57-.37.74-.25.17-.59.25-1.02.25-.91,0-1.36-.33-1.36-.99v-7.09c0-.33.12-.58.36-.75s.57-.25,1-.25.78.08,1.02.25c.25.17.37.42.37.74Z"/>
        <path id="i-2" data-name="i" class="cls-6" d="M131.56,118.06c-.38,0-.71-.07-.98-.21-.27-.14-.41-.34-.41-.59,0-.23.14-.42.42-.57.28-.15.6-.22.97-.22s.67.07.95.2c.28.14.41.33.41.59s-.13.45-.4.59c-.27.14-.59.21-.96.21ZM132.92,119.75v4.72c0,.33-.13.57-.39.74-.26.17-.59.25-1,.25s-.73-.09-.98-.26c-.25-.17-.38-.42-.38-.74v-4.68c0-.32.13-.57.38-.73.25-.16.58-.25.98-.25s.74.08,1,.25c.26.16.39.39.39.68Z"/>
      </g>
    </g>
  </g>
  <g id="bongo_tire">
    <path id="tire_r" class="cls-5" d="M109.87,122.26c-3.23,0-5.86-2.57-5.86-5.75,0-1.44.54-2.75,1.44-3.76-.47-.08-.95-.13-1.44-.13-4.47,0-8.1,3.56-8.1,7.95s3.63,7.95,8.1,7.95c4.02,0,7.35-2.88,7.98-6.65-.66.25-1.37.4-2.12.4Z"/>
    <path id="tire_f" class="cls-5" d="M48.7,112.62c4.39,0,7.95,3.56,7.95,7.95s-3.56,7.95-7.95,7.95-7.95-3.56-7.95-7.95,3.56-7.95,7.95-7.95Z"/>
  </g>
  <g id="bongo_body">
    <g id="bongo_body-2" data-name="bongo_body">
      <rect class="cls-5" x="7.62" y="92.9" width="55.22" height="16.76" rx="7.81" ry="7.81"/>
      <path class="cls-5" d="M19.57,76.25c0,1.76-1.42,3.18-3.18,3.18s-3.18-1.42-3.18-3.18,1.42-3.18,3.18-3.18,3.18,1.42,3.18,3.18Z"/>
      <path class="cls-5" d="M45.54,89.44l.51-20.61c.14-5.5-6.48-8.39-10.42-4.54l-21.12,20.61c-3.94,3.84-1.22,10.53,4.29,10.53h20.61c3.33,0,6.05-2.66,6.13-5.99Z"/>
      <rect class="cls-5" x="35.92" y="62.53" width="26.92" height="43.95" rx="4.19" ry="4.19"/>
      <path class="cls-5" d="M20.54,92.04c-2.68,3.33-6.48,4.72-8.48,3.11s-1.45-5.62,1.23-8.95,6.48-4.72,8.48-3.11,1.45,5.62-1.23,8.94Z"/>
      <path class="cls-1" d="M36.4,66.96l-10.68,11.18c-2.47,2.59-.64,6.87,2.94,6.87h21.37c3.58,0,5.41-4.29,2.94-6.87l-10.68-11.18c-1.6-1.68-4.28-1.68-5.88,0Z"/>
      <rect class="cls-1" x="35.87" y="65.71" width="20.83" height="19.31" rx="3.68" ry="3.68"/>
      <rect class="cls-5" x="22.97" y="93" width="37.75" height="13.47" rx="5.79" ry="5.79"/>
      <rect class="cls-1" x="11.36" y="90.32" width="6.72" height="5.37" rx="1.81" ry="1.81"/>
      <path class="cls-1" d="M18.09,91.79c0,1.47-1.51,2.67-3.36,2.67-1.86,0-3.36-1.2-3.36-2.67s1.5-2.67,3.36-2.67,3.36,1.2,3.36,2.67Z"/>
      <path class="cls-1" d="M23.2,96.94h2.77c.3,0,.54.24.54.54v.54c0,.3-.24.54-.54.54h-2.77c-.3,0-.54-.24-.54-.54v-.54c0-.3.24-.54.54-.54Z"/>
    </g>
  </g>
  <g id="cabin">
    <g id="cabin-2" data-name="cabin">
      <rect id="chimney" class="cls-7" x="118.55" y="20.77" width="5.75" height="8.37"/>
      <path id="body" class="cls-6" d="M133.83,35.45s0-.07-.01-.1v-3.57h-4.09c-5.58-2.32-16.27-3.89-28.55-3.89s-22.97,1.57-28.55,3.89h-4.09v3.57s-.01.07-.01.1,0,.07.01.1v70.32h65.29V35.56s.01-.07.01-.1Z"/>
      <path id="base" class="cls-7" d="M134.64,105.78h-66.9c-1.06,0-1.93.63-1.93,1.4h0c0,.78.86,1.4,1.93,1.4h66.9c1.06,0,1.93-.63,1.93-1.4h0c0-.78-.86-1.4-1.93-1.4Z"/>
      <path id="door" class="cls-3" d="M98.29,53.64c-.19-5.44-5.27-9.66-11.34-9.44-5.92.22-10.58,4.58-10.62,9.84h-.05v46.93h21.98v-46.25c.03-.36.04-.72.03-1.09Z"/>
      <g id="roof_l">
        <polygon class="cls-2" points="73.31 29.14 60.72 37.09 63.71 42.76 76.3 34.81 73.31 29.14"/>
        <polygon class="cls-2" points="88.31 32.37 74.08 35.59 72.86 29.18 87.1 25.96 88.31 32.37"/>
        <rect class="cls-2" x="86.65" y="25.87" width="14.54" height="6.55"/>
      </g>
      <g id="roof_r">
        <path class="cls-2" d="M138.18,34.92l3.48,2.19-2.99,5.68-11.93-7.53-9.91-2.23-2.53-.6h-13.1s-.01-6.56-.01-6.56h14.53c0,.06-.02.2.05.22l9.76,2.21,3.84.85c.06.01.14-.03.16.05,0,.05-.02.11-.07.2l8.73,5.52Z"/>
      </g>
      <path id="knob" class="cls-4" d="M80.01,73.07c.86,0,1.55.7,1.55,1.56s-.69,1.56-1.55,1.56-1.55-.7-1.55-1.56.69-1.56,1.55-1.56Z"/>
    </g>
  </g>
</svg>